<svg width="115" height="59" viewBox="0 0 115 59" fill="none" xmlns="http://www.w3.org/2000/svg">
<path d="M115 48.527C115 50.5677 114.533 52.2974 113.598 53.7162C112.664 55.135 111.398 56.2126 109.802 56.9492C108.213 57.6858 106.43 58.0541 104.452 58.0541C102.468 58.0541 100.681 57.6828 99.0922 56.9402C97.5032 56.1976 96.2413 55.1199 95.3066 53.7071C94.379 52.2883 93.9153 50.5616 93.9153 48.527C93.9153 46.4864 94.379 44.7567 95.3066 43.3379C96.2413 41.9191 97.5032 40.8414 99.0922 40.1048C100.681 39.3683 102.468 39 104.452 39C106.43 39 108.213 39.3683 109.802 40.1048C111.398 40.8414 112.664 41.9191 113.598 43.3379C114.533 44.7567 115 46.4864 115 48.527ZM109.543 48.527C109.543 47.3195 109.338 46.2992 108.928 45.4661C108.526 44.6329 107.943 44.002 107.181 43.5733C106.426 43.1447 105.517 42.9304 104.452 42.9304C103.395 42.9304 102.486 43.1447 101.724 43.5733C100.962 44.002 100.376 44.6329 99.9658 45.4661C99.5631 46.2992 99.3618 47.3195 99.3618 48.527C99.3618 49.7345 99.5631 50.7548 99.9658 51.588C100.376 52.4212 100.962 53.0521 101.724 53.4807C102.486 53.9094 103.395 54.1237 104.452 54.1237C105.517 54.1237 106.426 53.9094 107.181 53.4807C107.943 53.0521 108.526 52.4212 108.928 51.588C109.338 50.7548 109.543 49.7345 109.543 48.527Z" fill="#E0E0E0"/>
<path d="M90.8013 39.2539V57.8008H85.4626V39.2539H90.8013Z" fill="#E0E0E0"/>
<path d="M71.4409 57.8008H63.2765V39.2539H71.4301C73.6806 39.2539 75.6184 39.6252 77.2434 40.3678C78.8755 41.1044 80.1338 42.167 81.0182 43.5556C81.9026 44.9381 82.3448 46.5924 82.3448 48.5183C82.3448 50.4503 81.9026 52.1106 81.0182 53.4992C80.141 54.8878 78.8863 55.9534 77.2541 56.696C75.622 57.4325 73.6842 57.8008 71.4409 57.8008ZM68.6152 53.9791H71.236C72.4727 53.9791 73.5189 53.8041 74.3745 53.4539C75.2373 53.0977 75.888 52.5211 76.3266 51.7242C76.7724 50.9212 76.9953 49.8526 76.9953 48.5183C76.9953 47.184 76.7724 46.1215 76.3266 45.3306C75.8808 44.5336 75.2229 43.9601 74.3529 43.6099C73.4901 43.2537 72.426 43.0756 71.1605 43.0756H68.6152V53.9791Z" fill="#E0E0E0"/>
<path d="M54.6029 39.2539H59.9308V51.217C59.9308 52.5996 59.539 53.8041 58.7553 54.8304C57.9715 55.8507 56.8786 56.6416 55.4765 57.2031C54.0745 57.7586 52.4459 58.0363 50.5908 58.0363C48.7142 58.0363 47.0749 57.7586 45.6728 57.2031C44.2707 56.6416 43.1814 55.8507 42.4049 54.8304C41.6283 53.8041 41.2401 52.5996 41.2401 51.217V39.2539H46.5787V50.8276C46.5787 51.4676 46.7441 52.0381 47.0749 52.5392C47.4128 53.0403 47.8838 53.4328 48.4877 53.7165C49.0917 54.0003 49.7927 54.1422 50.5908 54.1422C51.3889 54.1422 52.0864 54.0003 52.6832 53.7165C53.2871 53.4328 53.7581 53.0403 54.096 52.5392C54.434 52.0381 54.6029 51.4676 54.6029 50.8276V39.2539Z" fill="#E0E0E0"/>
<path d="M19.9631 42.8945V39.2539H38.6324V42.8945H31.9347V57.8008H26.6715V42.8945H19.9631Z" fill="#E0E0E0"/>
<path d="M12.5756 44.814C12.5037 44.1499 12.1837 43.6337 11.6157 43.2654C11.0549 42.8911 10.2532 42.7039 9.21058 42.7039C8.52033 42.7039 7.94512 42.7794 7.48495 42.9304C7.02478 43.0813 6.67965 43.2896 6.44956 43.5552C6.21948 43.8148 6.10084 44.1137 6.09365 44.4518C6.07927 44.7295 6.14398 44.974 6.28779 45.1853C6.43878 45.3966 6.65448 45.5838 6.9349 45.7468C7.22251 45.9038 7.56763 46.0426 7.97028 46.1634C8.37293 46.2841 8.82591 46.3898 9.32922 46.4803L11.2274 46.8426C12.3203 47.0418 13.2838 47.3075 14.1179 47.6395C14.9591 47.9716 15.6637 48.367 16.2318 48.8259C16.807 49.2847 17.242 49.813 17.5368 50.4107C17.8316 51.0084 17.9826 51.6786 17.9898 52.4212C17.9826 53.5924 17.6302 54.5976 16.9328 55.4368C16.2354 56.276 15.2323 56.919 13.9237 57.3658C12.6223 57.8126 11.0513 58.0359 9.21058 58.0359C7.36271 58.0359 5.75212 57.8035 4.3788 57.3386C3.00548 56.8737 1.93775 56.1674 1.17559 55.2195C0.413434 54.2716 0.0215704 53.0732 0 51.6242H5.1122C5.15534 52.2219 5.34588 52.72 5.68381 53.1185C6.02175 53.5169 6.48551 53.8188 7.07511 54.0241C7.67189 54.2294 8.36214 54.332 9.14587 54.332C9.86489 54.332 10.476 54.2505 10.9794 54.0875C11.4899 53.9245 11.8817 53.6981 12.1549 53.4083C12.4282 53.1185 12.5684 52.7864 12.5756 52.4121C12.5684 52.0619 12.439 51.7631 12.1873 51.5155C11.9356 51.262 11.5474 51.0446 11.0225 50.8635C10.5048 50.6763 9.84332 50.5043 9.03802 50.3473L6.72998 49.8945C4.8174 49.5262 3.31106 48.9315 2.21097 48.1104C1.11088 47.2833 0.564427 46.1664 0.571617 44.7597C0.564427 43.6126 0.931124 42.6073 1.67171 41.744C2.4123 40.8807 3.43689 40.2075 4.7455 39.7245C6.05411 39.2415 7.54606 39 9.22137 39C10.9326 39 12.4174 39.2445 13.6757 39.7335C14.9411 40.2165 15.9226 40.8957 16.62 41.7712C17.3175 42.6466 17.6734 43.6609 17.6878 44.814H12.5756Z" fill="#E0E0E0"/>
<path d="M55.0259 37.5V0.791992H70.2089C72.9608 0.791992 75.3357 1.28788 77.3338 2.27967C79.3439 3.2595 80.8933 4.66951 81.982 6.50969C83.0708 8.33792 83.6152 10.5067 83.6152 13.016C83.6152 15.5612 83.0588 17.724 81.9461 19.5044C80.8334 21.2729 79.2541 22.6232 77.2082 23.5552C75.1623 24.4753 72.7394 24.9354 69.9397 24.9354H60.3382V17.9451H68.2886C69.6287 17.9451 70.7473 17.7718 71.6447 17.4253C72.554 17.0668 73.2419 16.5291 73.7086 15.8121C74.1752 15.0832 74.4085 14.1512 74.4085 13.016C74.4085 11.8809 74.1752 10.9428 73.7086 10.202C73.2419 9.44919 72.554 8.88758 71.6447 8.51716C70.7354 8.13478 69.6167 7.94359 68.2886 7.94359H63.9096V37.5H55.0259ZM75.7186 20.7233L84.8715 37.5H75.1802L66.2068 20.7233H75.7186Z" fill="#870000"/>
<path d="M24.1484 7.99645V0.791992H55.2143V7.99645H44.0693V37.4953H35.3113V7.99645H24.1484Z" fill="#870000"/>
<path d="M10.3015 0.791992L17.0136 12.3872H17.3007L24.0846 0.791992H34.0271L22.936 19.1437L34.3861 37.4953H24.1923L17.3007 25.7746H17.0136L10.122 37.4953H0L11.3962 19.1437L0.287149 0.791992H10.3015Z" fill="#B40000"/>
<path d="M115 14.7548H105.306C105.237 13.8897 105.054 13.105 104.756 12.4007C104.47 11.6963 104.069 11.0908 103.553 10.5841C103.049 10.0651 102.436 9.66968 101.714 9.39781C100.992 9.11359 100.173 8.97148 99.2562 8.97148C97.6521 8.97148 96.2943 9.39164 95.1828 10.2319C94.0828 11.0722 93.2464 12.2771 92.6734 13.8465C92.112 15.4159 91.8312 17.3004 91.8312 19.5C91.8312 21.8232 92.1177 23.7695 92.6906 25.3389C93.275 26.8959 94.1172 28.0699 95.2172 28.8607C96.3172 29.6393 97.6406 30.0285 99.1875 30.0285C100.07 30.0285 100.86 29.9111 101.559 29.6763C102.258 29.4292 102.866 29.077 103.381 28.6198C103.897 28.1625 104.315 27.6126 104.636 26.9701C104.968 26.3151 105.192 25.5798 105.306 24.7643L115 24.8384C114.885 26.4449 114.467 28.0822 113.745 29.7505C113.023 31.4064 111.998 32.9387 110.669 34.3474C109.351 35.7438 107.718 36.8683 105.77 37.721C103.822 38.5737 101.559 39 98.9812 39C95.75 39 92.851 38.2524 90.2844 36.7571C87.7292 35.2619 85.7068 33.0623 84.2172 30.1583C82.7391 27.2543 82 23.7015 82 19.5C82 15.2738 82.7562 11.7148 84.2687 8.8232C85.7812 5.9192 87.8208 3.72576 90.3875 2.24287C92.9542 0.747624 95.8187 0 98.9812 0C101.204 0 103.249 0.327471 105.117 0.982413C106.985 1.63736 108.623 2.59506 110.033 3.85551C111.442 5.10361 112.577 6.64211 113.436 8.47101C114.295 10.2999 114.817 12.3945 115 14.7548Z" fill="#870000"/>
</svg>
