<svg width="24" height="24" viewBox="0 0 24 24" fill="none" xmlns="http://www.w3.org/2000/svg">
<path d="M11.615 18.1988C11.9217 18.1988 12.1804 18.0933 12.3912 17.8825C12.6021 17.6717 12.7075 17.4129 12.7075 17.1062C12.7075 16.7996 12.6021 16.5408 12.3912 16.33C12.1804 16.1192 11.9217 16.0138 11.615 16.0138C11.3083 16.0138 11.0496 16.1192 10.8387 16.33C10.6279 16.5408 10.5225 16.7996 10.5225 17.1062C10.5225 17.4129 10.6279 17.6717 10.8387 17.8825C11.0496 18.0933 11.3083 18.1988 11.615 18.1988ZM10.6088 14.0013H12.305C12.305 13.5029 12.3673 13.0477 12.4919 12.6356C12.6165 12.2235 13.0046 11.7492 13.6562 11.2125C14.2504 10.7142 14.6721 10.2254 14.9213 9.74625C15.1704 9.26708 15.295 8.74 15.295 8.165C15.295 7.14917 14.9644 6.33458 14.3031 5.72125C13.6419 5.10792 12.765 4.80125 11.6725 4.80125C10.7333 4.80125 9.90438 5.03604 9.18563 5.50562C8.46688 5.97521 7.94458 6.62208 7.61875 7.44625L9.1425 8.02125C9.35333 7.48458 9.66958 7.06771 10.0912 6.77062C10.5129 6.47354 11.0112 6.325 11.5862 6.325C12.2379 6.325 12.765 6.50229 13.1675 6.85687C13.57 7.21146 13.7712 7.66667 13.7712 8.2225C13.7712 8.64417 13.6467 9.04187 13.3975 9.41562C13.1483 9.78937 12.7842 10.1775 12.305 10.58C11.73 11.0783 11.3035 11.5719 11.0256 12.0606C10.7477 12.5494 10.6088 13.1962 10.6088 14.0013ZM11.5 23C9.92833 23 8.44292 22.6981 7.04375 22.0944C5.64458 21.4906 4.42271 20.6665 3.37812 19.6219C2.33354 18.5773 1.50937 17.3554 0.905625 15.9562C0.301875 14.5571 0 13.0717 0 11.5C0 9.90917 0.301875 8.41417 0.905625 7.015C1.50937 5.61583 2.33354 4.39875 3.37812 3.36375C4.42271 2.32875 5.64458 1.50937 7.04375 0.905625C8.44292 0.301875 9.92833 0 11.5 0C13.0908 0 14.5858 0.301875 15.985 0.905625C17.3842 1.50937 18.6012 2.32875 19.6362 3.36375C20.6713 4.39875 21.4906 5.61583 22.0944 7.015C22.6981 8.41417 23 9.90917 23 11.5C23 13.0717 22.6981 14.5571 22.0944 15.9562C21.4906 17.3554 20.6713 18.5773 19.6362 19.6219C18.6012 20.6665 17.3842 21.4906 15.985 22.0944C14.5858 22.6981 13.0908 23 11.5 23ZM11.5 21.275C14.2217 21.275 16.5312 20.3215 18.4287 18.4144C20.3262 16.5073 21.275 14.2025 21.275 11.5C21.275 8.77833 20.3262 6.46875 18.4287 4.57125C16.5312 2.67375 14.2217 1.725 11.5 1.725C8.7975 1.725 6.49271 2.67375 4.58563 4.57125C2.67854 6.46875 1.725 8.77833 1.725 11.5C1.725 14.2025 2.67854 16.5073 4.58563 18.4144C6.49271 20.3215 8.7975 21.275 11.5 21.275Z" fill="white" fill-opacity="0.75"/>
</svg>
